<svg width="153" height="154" viewBox="0 0 153 154" fill="none" xmlns="http://www.w3.org/2000/svg">
<path fill-rule="evenodd" clip-rule="evenodd" d="M84.9155 27.0524C84.694 25.3529 83.2462 24.0814 81.5323 24.0814H71.5989C69.8829 24.0814 68.434 25.3558 68.215 27.0577L66.448 40.7881C63.5439 41.6018 60.782 42.7557 58.208 44.2042L47.2472 35.7428C45.8889 34.6943 43.9632 34.8177 42.7499 36.031L35.7259 43.055C34.514 44.2669 34.3893 46.1898 35.4345 47.5481L43.8734 58.5153C42.4107 61.1046 41.2463 63.8847 40.427 66.8091L26.6966 68.5761C24.9947 68.7951 23.7203 70.244 23.7203 71.96V81.8934C23.7203 83.6073 24.9918 85.0552 26.6913 85.2766L40.4104 87.0639C41.2306 90.01 42.4008 92.8104 43.8734 95.4172L35.4345 106.384C34.3893 107.743 34.514 109.666 35.7259 110.877L42.7499 117.901C43.9633 119.115 45.889 119.238 47.2473 118.19L58.208 109.728C60.782 111.177 63.5439 112.331 66.448 113.144L68.215 126.875C68.434 128.577 69.8829 129.851 71.5989 129.851H81.5323C83.2462 129.851 84.694 128.58 84.9155 126.88L86.7028 113.161C89.6489 112.341 92.4492 111.171 95.0561 109.698L106.023 118.137C107.382 119.182 109.304 119.057 110.516 117.845L117.54 110.821C118.754 109.608 118.877 107.682 117.829 106.324L109.367 95.3634C110.826 92.7718 111.985 89.9897 112.8 87.0639L126.519 85.2766C128.218 85.0552 129.49 83.6073 129.49 81.8934V71.96C129.49 70.244 128.216 68.7951 126.514 68.5761L112.783 66.8091C111.97 63.905 110.816 61.1431 109.367 58.5691L117.829 47.6083C118.877 46.25 118.754 44.3243 117.54 43.1109L110.516 36.087C109.304 34.8751 107.382 34.7503 106.023 35.7955L95.0561 44.2345C92.4492 42.7619 89.6489 41.5916 86.7028 40.7715L84.9155 27.0524ZM76.6052 96.1487C87.1993 96.1487 95.7876 87.5604 95.7876 76.9663C95.7876 66.3721 87.1993 57.7839 76.6052 57.7839C66.011 57.7839 57.4227 66.3721 57.4227 76.9663C57.4227 87.5604 66.011 96.1487 76.6052 96.1487Z" fill="#0054CC"/>
<path d="M104.348 16.2705C105.123 15.968 105.507 15.0939 105.205 14.3181L100.275 1.67564C99.973 0.899837 99.0989 0.51613 98.3231 0.818607C97.5472 1.12108 97.1635 1.9952 97.466 2.77101L100.875 11.5142C77.4442 2.81462 50.8196 7.36113 31.5878 23.6178C30.7399 24.3345 30.6335 25.6029 31.3503 26.4508C32.067 27.2987 33.3354 27.4051 34.1833 26.6883C52.1764 11.4787 77.0495 7.14717 99.0134 15.1138L90.6097 18.3902C89.8339 18.6927 89.4502 19.5668 89.7527 20.3426C90.0552 21.1184 90.9293 21.5021 91.7051 21.1997L104.348 16.2705Z" fill="#0054CC"/>
<path d="M138.458 99.3744C146.424 77.4104 142.093 52.5374 126.883 34.5443C126.166 33.6964 126.273 32.428 127.121 31.7113C127.968 30.9945 129.237 31.1008 129.954 31.9488C146.21 51.1805 150.757 77.8052 142.057 101.236L150.8 97.827C151.576 97.5245 152.45 97.9082 152.753 98.684C153.055 99.4598 152.672 100.334 151.896 100.636L139.253 105.566C138.477 105.868 137.603 105.484 137.301 104.709L132.372 92.0661C132.069 91.2903 132.453 90.4162 133.229 90.1137C134.005 89.8112 134.879 90.1949 135.181 90.9707L138.458 99.3744Z" fill="#0054CC"/>
<path d="M15.9095 49.2238C15.6071 48.4479 14.7329 48.0642 13.9571 48.3667L1.31468 53.2959C0.538877 53.5984 0.155169 54.4725 0.457644 55.2483C0.760125 56.0241 1.63425 56.4078 2.41005 56.1053L11.1532 52.6965C2.45366 76.1271 7.00013 102.752 23.2568 121.984C23.9735 122.832 25.2419 122.938 26.0898 122.221C26.9377 121.504 27.0441 120.236 26.3273 119.388C11.1177 101.395 6.78621 76.5219 14.7528 54.558L18.0293 62.9616C18.3317 63.7374 19.2059 64.1211 19.9817 63.8186C20.7575 63.5161 21.1412 62.642 20.8387 61.8662L15.9095 49.2238Z" fill="#0054CC"/>
<path d="M54.197 138.819C76.161 146.785 101.034 142.454 119.027 127.244C119.875 126.527 121.143 126.634 121.86 127.482C122.577 128.329 122.471 129.598 121.623 130.315C102.391 146.571 75.7662 151.118 52.3355 142.418L55.7444 151.161C56.0469 151.937 55.6632 152.811 54.8874 153.114C54.1116 153.416 53.2375 153.033 52.935 152.257L48.0058 139.614C47.7033 138.838 48.087 137.964 48.8628 137.662L61.5053 132.733C62.2811 132.43 63.1552 132.814 63.4577 133.59C63.7602 134.366 63.3764 135.24 62.6006 135.542L54.197 138.819Z" fill="#0054CC"/>
</svg>
