<svg width="693" height="749" viewBox="0 0 693 749" fill="none" xmlns="http://www.w3.org/2000/svg">
<path fill-rule="evenodd" clip-rule="evenodd" d="M338.324 0.127197L358.143 2.897H358.164V2.89989L489.037 21.1898V41.144L358.164 113.484V251.543H335.557V2.897H338.324V0.127197ZM414.479 360.972V251.546H269.098V360.975H163.013V251.546H71.8184L0.76178 607.406L249.207 747.989V609.693C249.207 603.455 251.621 597.459 255.943 592.962L328.791 517.16C338.292 507.274 354.109 507.274 363.61 517.16L436.458 592.962C440.78 597.459 443.194 603.455 443.194 609.693V748.731L692.951 607.406L620.57 251.546H520.564V360.972H414.479Z" fill="#E3F2FF"/>
</svg>
