<svg width="1000" height="1117" viewBox="0 0 1000 1117" fill="none" xmlns="http://www.w3.org/2000/svg">
<g clip-path="url(#clip0)">
<rect width="1000" height="1117" fill="#EAF5FF"/>
<path d="M636.845 44.7893L984.336 243.491C993.679 248.833 999.444 258.771 999.444 269.534V811.39C999.444 822.107 993.726 832.011 984.444 837.37L515.111 1108.34C505.829 1113.7 494.393 1113.7 485.111 1108.34L15.7784 837.37C6.49639 832.011 0.778442 822.107 0.778442 811.39V269.139C0.778442 258.588 6.32039 248.814 15.3736 243.396L347.261 44.7893L477.001 -30.464C486.309 -35.8632 497.796 -35.8632 507.105 -30.464L636.845 44.7893Z" fill="white" fill-opacity="0.5"/>
<path fill-rule="evenodd" clip-rule="evenodd" d="M490.324 285.127L510.143 287.897H510.164V287.9L641.037 306.19V326.144L510.164 398.484V536.543H487.557V287.897H490.324V285.127ZM566.479 645.972V536.546H421.098V645.975H315.013V536.546H223.818L152.762 892.406L401.207 1032.99V894.693C401.207 888.455 403.621 882.459 407.943 877.962L480.791 802.16C490.292 792.274 506.109 792.274 515.61 802.16L588.458 877.962C592.78 882.459 595.194 888.455 595.194 894.693V1033.73L844.951 892.406L772.57 536.546H672.564V645.972H566.479Z" fill="#E3F2FF"/>
</g>
<defs>
<clipPath id="clip0">
<rect width="1000" height="1117" fill="white"/>
</clipPath>
</defs>
</svg>
