<svg width="154" height="54" viewBox="0 0 154 54" fill="none" xmlns="http://www.w3.org/2000/svg">
<path fill-rule="evenodd" clip-rule="evenodd" d="M25.4443 1.08815C24.309 0.432693 22.9103 0.432692 21.775 1.08815L2.08661 12.4552C0.95132 13.1107 0.251953 14.322 0.251953 15.633V38.3671C0.251953 39.678 0.951321 40.8894 2.08661 41.5448L21.775 52.9119C22.9103 53.5674 24.309 53.5674 25.4443 52.9119L45.1327 41.5448C46.2679 40.8894 46.9673 39.678 46.9673 38.3671V15.633C46.9673 14.322 46.2679 13.1107 45.1327 12.4552L25.4443 1.08815ZM24.1748 13.7501L23.2363 13.619V13.7501H23.1054V25.5321H19.9561V30.7172H14.9292V25.5321H10.6079L7.24081 42.3947L19.0136 49.0563V42.9291C19.0136 42.3603 19.2337 41.8136 19.6278 41.4036L22.0223 38.912C22.8886 38.0105 24.3308 38.0105 25.1971 38.912L27.5916 41.4036C27.9857 41.8136 28.2058 42.3603 28.2058 42.9291V49.0914L40.0406 42.3947L36.6108 25.5321H31.872V30.7172H26.8451V25.5321H24.1766V18.9904L30.378 15.5626V14.617L24.1766 13.7501H24.1748Z" fill="white"/>
<path d="M83.5899 29.5752H75.9132C75.6271 32.8175 73.7676 35.9168 70.0961 35.9168C65.9955 35.9168 63.9452 32.5314 63.9452 27.0004C63.9452 21.374 65.9955 18.1316 70.0961 18.1316C73.7676 18.1316 75.6271 21.1832 75.9132 24.4733H83.5899C82.9224 18.0363 78.4403 12.2191 70.1914 12.2191C61.8949 12.2191 56.6499 18.4654 56.6499 27.0004C56.6499 35.5354 61.8949 41.7816 70.1914 41.7816C78.4403 41.7816 83.1131 36.0599 83.5899 29.5752Z" fill="white"/>
<path d="M90.3416 41.3048L92.0581 36.1075H101.928L103.645 41.3048H110.702L100.307 12.6959H93.9177L83.5708 41.3048H90.3416ZM93.727 31.0056L96.9693 21.0879L100.259 31.0056H93.727Z" fill="white"/>
<path d="M133.5 32.3884C133.5 21.5647 117.718 25.7607 117.718 20.3726C117.718 18.7992 119.291 17.6071 121.485 17.6071C124.345 17.6071 126.253 19.2283 126.348 22.0415H133.166C132.833 16.272 128.446 12.2668 121.866 12.2668C115.62 12.2668 111.281 15.8906 111.281 21.0879C111.281 32.2453 126.729 28.2401 126.729 33.3897C126.729 35.2493 124.918 36.3936 122.39 36.3936C119.196 36.3936 117.193 34.7248 117.002 31.9592H110.184C110.565 37.7764 115.286 41.7816 122.247 41.7816C129.447 41.7816 133.5 37.5857 133.5 32.3884Z" fill="white"/>
<path d="M153.65 41.3048V35.4877H143.542V12.6959H136.485V41.3048H153.65Z" fill="white"/>
</svg>
