<svg width="193" height="193" viewBox="0 0 193 193" fill="none" xmlns="http://www.w3.org/2000/svg">
<g filter="url(#filter0_d)">
<path fill-rule="evenodd" clip-rule="evenodd" d="M119.107 42.4217L125.469 37.9414C127.237 36.6968 127.944 34.4044 126.945 32.4874C126.088 30.8425 124.922 28.9296 123.58 27.588C122.239 26.2464 120.326 25.0802 118.681 24.2231C116.764 23.2242 114.471 23.9312 113.227 25.6986L108.746 32.0611C107.821 33.3758 105.881 33.4013 105.01 32.0501C103.978 30.4497 103.039 28.782 102.2 27.0541L96.758 15.8342L85.5341 21.2786C83.8062 22.1168 82.1385 23.0556 80.5382 24.0879C79.1869 24.9595 79.2125 26.8986 80.5272 27.8244L86.8896 32.3047C88.657 33.5492 89.3641 35.8417 88.3652 37.7587C87.5081 39.4036 86.3418 41.3166 85.0003 42.6581C83.6587 43.9997 81.7457 45.166 80.1009 46.023C78.1839 47.0219 75.8914 46.3149 74.6469 44.5475L70.1666 38.185C69.2408 36.8703 67.3017 36.8448 66.4301 38.196C65.3978 39.7963 64.4589 41.4641 63.6208 43.192L58.1763 54.4159L58.4344 54.5411L53.0147 65.7139C52.1766 67.4417 51.2377 69.1095 50.2054 70.7098C49.3338 72.061 47.3947 72.0355 46.4689 70.7207L41.9886 64.3583C40.744 62.5909 38.4516 61.8839 36.5346 62.8828C34.8897 63.7399 32.9767 64.9061 31.6352 66.2477C30.2936 67.5893 29.1273 69.5023 28.2703 71.1471C27.2714 73.0641 27.9784 75.3565 29.7458 76.6011L36.1083 81.0814C37.423 82.0072 37.4485 83.9463 36.0973 84.8179C34.497 85.8502 32.8292 86.7891 31.1014 87.6272L19.8814 93.0698L25.3258 104.294C26.164 106.022 27.1029 107.689 28.1352 109.29C29.0068 110.641 30.9459 110.615 31.8717 109.301L36.352 102.938C37.5965 101.171 39.889 100.464 41.806 101.463C43.4508 102.32 45.3638 103.486 46.7054 104.828C48.0469 106.169 49.2132 108.082 50.0703 109.727C51.0692 111.644 50.3621 113.936 48.5947 115.181L42.2323 119.661C40.9176 120.587 40.892 122.526 42.2433 123.398C43.8436 124.43 45.5113 125.369 47.2392 126.207L58.4631 131.651L58.4839 131.608L69.5207 136.962C71.2485 137.8 72.9163 138.739 74.5165 139.771C75.8678 140.643 75.8422 142.582 74.5275 143.508L68.1651 147.988C66.3977 149.233 65.6906 151.525 66.6895 153.442C67.5467 155.087 68.7129 157 70.0544 158.342C71.3961 159.683 73.309 160.849 74.9539 161.707C76.8709 162.705 79.1633 161.998 80.4078 160.231L84.8881 153.868C85.814 152.554 87.7531 152.528 88.6247 153.879C89.6569 155.48 90.5958 157.148 91.434 158.875L96.8766 170.095L108.1 164.651C109.828 163.813 111.496 162.874 113.096 161.842C114.448 160.97 114.422 159.031 113.107 158.105L106.745 153.625C104.978 152.38 104.27 150.088 105.269 148.171C106.126 146.526 107.293 144.613 108.634 143.271C109.976 141.93 111.889 140.764 113.534 139.907C115.451 138.908 117.743 139.615 118.988 141.382L123.468 147.744C124.394 149.059 126.333 149.085 127.205 147.733C128.237 146.133 129.176 144.465 130.014 142.738L135.458 131.514L135.211 131.394L140.645 120.191C141.483 118.463 142.422 116.796 143.454 115.195C144.325 113.844 146.265 113.87 147.19 115.184L151.671 121.547C152.915 123.314 155.208 124.021 157.125 123.022C158.77 122.165 160.682 120.999 162.024 119.657C163.366 118.316 164.532 116.403 165.389 114.758C166.388 112.841 165.681 110.549 163.913 109.304L157.551 104.824C156.236 103.898 156.211 101.959 157.562 101.087C159.162 100.055 160.83 99.116 162.558 98.2779L173.784 92.8324L173.758 92.78L173.703 92.8068L168.261 81.5869C167.422 79.859 166.484 78.1913 165.451 76.5909C164.58 75.2397 162.641 75.2652 161.715 76.5799L157.234 82.9424C155.99 84.7098 153.697 85.4168 151.78 84.4179C150.136 83.5608 148.223 82.3946 146.881 81.053C145.539 79.7114 144.373 77.7985 143.516 76.1536C142.517 74.2366 143.224 71.9442 144.992 70.6997L151.354 66.2193C152.669 65.2935 152.694 63.3544 151.343 62.4828C149.743 61.4506 148.075 60.5116 146.347 59.6735L135.192 54.2623L135.161 54.3261L124.114 48.9675C122.386 48.1293 120.718 47.1904 119.118 46.1582C117.767 45.2866 117.792 43.3475 119.107 42.4217ZM124.084 71.2357C123.812 71.0732 123.567 70.8503 123.368 70.568L118.888 64.2055C118.449 63.5819 117.879 63.0903 117.242 62.7591C117.814 63.087 118.325 63.5472 118.727 64.118L123.208 70.4804C123.445 70.8174 123.749 71.0696 124.084 71.2357ZM87.7845 76.0784C86.8174 75.4996 85.484 75.7421 84.7638 76.7649L80.2835 83.1273C79.0874 84.8259 76.9235 85.5451 75.0551 84.7119C75.0832 84.7266 75.1111 84.7412 75.139 84.7557C77.0559 85.7545 79.3484 85.0475 80.5929 83.2801L85.0733 76.9177C85.7193 76.0003 86.8587 75.7106 87.7845 76.0784ZM69.8429 60.078C69.6944 60.004 69.5456 59.9308 69.3963 59.8584L58.4868 54.5665L58.4857 54.5686L69.7056 60.0111C69.7514 60.0333 69.7972 60.0556 69.8429 60.078ZM87.0869 109.384C87.7097 109.822 88.2008 110.391 88.532 111.028C88.2043 110.456 87.7446 109.946 87.1746 109.544L80.8121 105.064C80.4756 104.827 80.2235 104.524 80.0574 104.189C80.2199 104.46 80.4425 104.705 80.7244 104.904L87.0869 109.384ZM108.871 109.165C108.193 110.127 106.972 110.399 106.024 109.945C106.926 110.24 107.993 109.937 108.61 109.06L113.091 102.698C114.284 101.003 116.441 100.283 118.306 101.107C116.504 100.456 114.489 101.186 113.351 102.802L108.871 109.165Z" fill="#0054CC"/>
<path d="M96.7571 92.8104L85.6019 98.2215C83.874 99.0597 82.2062 99.9986 80.6059 101.031C79.2547 101.902 79.2803 103.842 80.595 104.767L86.9574 109.248C88.7248 110.492 89.4318 112.785 88.433 114.702C87.5759 116.347 86.4096 118.259 85.068 119.601C83.7265 120.943 81.8135 122.109 80.1686 122.966C78.2516 123.965 75.9592 123.258 74.7146 121.49L70.2343 115.128C69.3085 113.813 67.3694 113.788 66.4978 115.139C65.4655 116.739 64.5266 118.407 63.6884 120.135L58.2459 131.355L58.1907 131.328M58.1653 131.38L58.1907 131.328M58.1907 131.328L63.6111 120.154" stroke="#EAF5FF" stroke-width="3" stroke-linecap="round"/>
<path d="M135.299 54.2834L129.888 65.4387C129.05 67.1665 128.111 68.8343 127.079 70.4346C126.207 71.7858 124.268 71.7603 123.342 70.4456L118.862 64.0831C117.617 62.3157 115.325 61.6087 113.408 62.6075C111.763 63.4646 109.85 64.6309 108.508 65.9725C107.167 67.314 106.001 69.227 105.144 70.8719C104.145 72.7889 104.852 75.0814 106.619 76.3259L112.982 80.8062C114.296 81.7321 114.322 83.6712 112.971 84.5428C111.37 85.5751 109.702 86.514 107.975 87.3521L96.7547 92.7946L96.7815 92.8499M96.7291 92.8753L96.7815 92.8499M96.7815 92.8499L107.956 87.4295" stroke="#EAF5FF" stroke-width="3" stroke-linecap="round"/>
<path d="M96.6397 93.1416L91.2285 81.9863C90.3904 80.2585 89.4515 78.5907 88.4192 76.9904C87.5476 75.6392 85.6085 75.6647 84.6827 76.9794L80.2024 83.3419C78.9578 85.1093 76.6654 85.8163 74.7485 84.8175C73.1036 83.9604 71.1906 82.7941 69.849 81.4525C68.5074 80.1109 67.3412 78.198 66.4841 76.5531C65.4852 74.6361 66.1922 72.3436 67.9596 71.0991L74.3221 66.6188C75.6368 65.6929 75.6623 63.7538 74.3111 62.8822C72.7107 61.8499 71.043 60.911 69.3151 60.0729L58.0952 54.6304L58.122 54.5751M58.0696 54.5497L58.122 54.5751M58.122 54.5751L69.296 59.9955" stroke="#EAF5FF" stroke-width="3" stroke-linecap="round"/>
<path d="M135.306 131.444L124.151 126.033C122.423 125.194 120.755 124.256 119.155 123.223C117.804 122.352 117.829 120.413 119.144 119.487L125.506 115.006C127.274 113.762 127.981 111.469 126.982 109.553C126.125 107.908 124.959 105.995 123.617 104.653C122.276 103.312 120.363 102.145 118.718 101.288C116.801 100.289 114.508 100.996 113.264 102.764L108.783 109.126C107.858 110.441 105.918 110.466 105.047 109.115C104.015 107.515 103.076 105.847 102.237 104.119L96.795 92.8993L96.7397 92.9261M96.7143 92.8737L96.7397 92.9261M96.7397 92.9261L102.16 104.1" stroke="#EAF5FF" stroke-width="3" stroke-linecap="round"/>
</g>
<defs>
<filter id="filter0_d" x="0.797852" y="0.945374" width="192.039" height="192.039" filterUnits="userSpaceOnUse" color-interpolation-filters="sRGB">
<feFlood flood-opacity="0" result="BackgroundImageFix"/>
<feColorMatrix in="SourceAlpha" type="matrix" values="0 0 0 0 0 0 0 0 0 0 0 0 0 0 0 0 0 0 127 0"/>
<feOffset dy="4"/>
<feGaussianBlur stdDeviation="2"/>
<feColorMatrix type="matrix" values="0 0 0 0 0 0 0 0 0 0 0 0 0 0 0 0 0 0 0.25 0"/>
<feBlend mode="normal" in2="BackgroundImageFix" result="effect1_dropShadow"/>
<feBlend mode="normal" in="SourceGraphic" in2="effect1_dropShadow" result="shape"/>
</filter>
</defs>
</svg>
