<svg width="157" height="143" viewBox="0 0 157 143" fill="none" xmlns="http://www.w3.org/2000/svg">
<path fill-rule="evenodd" clip-rule="evenodd" d="M75.3503 11.5879C75.8441 11.0693 76.4065 10.6613 77.0076 10.364L77.0506 43.7709L39.5581 61.4775C38.6836 61.8905 38.1257 62.7709 38.1257 63.7381V115.937L8.10394 130.192C8.14046 129.492 8.30437 128.787 8.60838 128.107L9.94985 125.11C10.5297 123.814 9.94941 122.294 8.65373 121.714C7.35805 121.134 5.83763 121.714 5.25777 123.01L0.383828 133.901C0.100613 134.533 0.0850755 135.254 0.340745 135.898C0.596414 136.543 1.1016 137.057 1.74163 137.323L12.7759 141.919C14.0863 142.465 15.591 141.845 16.1368 140.535C16.6826 139.224 16.0628 137.719 14.7524 137.174L11.701 135.903C11.059 135.635 10.4903 135.267 10.0051 134.825L40.6782 120.26L78.6099 139.885C79.3365 140.261 80.201 140.258 80.9246 139.876L117.971 120.346L146.86 134.43C146.3 134.909 145.639 135.289 144.895 135.535L141.778 136.566C140.43 137.012 139.699 138.466 140.145 139.814C140.59 141.161 142.044 141.893 143.392 141.447L154.72 137.7C155.378 137.482 155.921 137.008 156.224 136.384C156.527 135.761 156.566 135.041 156.331 134.389L152.282 123.142C151.801 121.807 150.328 121.114 148.993 121.595C147.657 122.076 146.964 123.548 147.445 124.884L148.565 127.994C148.788 128.613 148.9 129.245 148.912 129.868L120.664 116.096V64.2091H120.62C120.652 64.0408 120.668 63.8678 120.664 63.6923C120.647 62.7484 120.1 61.8947 119.249 61.4853L82.0503 43.585L82.0075 10.3189C82.6207 10.6129 83.1915 11.0241 83.6874 11.5526L86.0297 14.0488C87.0107 15.0944 88.6563 15.1096 89.6866 14.0827C90.6969 13.0757 90.7358 11.4431 89.7738 10.4179L81.4273 1.52271C80.9453 1.00905 80.2825 0.717852 79.5891 0.715228C78.8958 0.712603 78.2309 0.998772 77.7452 1.50877L69.3729 10.3013C68.3744 11.35 68.3776 13.0062 69.3802 14.0202C70.4037 15.0555 72.076 15.0265 73.0955 13.9559L75.3503 11.5879ZM46.2636 63.8403L77.0577 49.2971L77.0969 79.7932L46.2636 63.8403ZM43.1257 67.8464L77.1042 85.4266L77.1196 97.4202L43.1257 113.562V67.8464ZM82.2484 85.4988L115.664 67.8825V113.659L82.2484 97.3674V85.4988ZM82.2484 133.526V102.93L112.401 117.63L82.2484 133.526ZM46.3518 117.565L77.1267 102.952L77.1661 133.509L46.3518 117.565ZM82.0575 49.1373L82.0971 79.9263L112.611 63.8399L82.0575 49.1373Z" fill="#0054CC"/>
</svg>
